<svg width="40" height="41" viewBox="0 0 40 41" fill="none" xmlns="http://www.w3.org/2000/svg">
<rect y="1" width="40" height="40" rx="10" fill="#9FE871"/>
<rect x="22" y="21" width="14" height="2" rx="1" fill="#24EE89"/>
<rect x="19" y="27" width="17" height="2" rx="1" fill="#24EE89"/>
<path d="M21.9378 0.609375C22.1149 1.03646 22.042 1.40104 21.7191 1.70312L14.016 9.40625V21C14.016 21.4375 13.8128 21.7448 13.4066 21.9219C13.2712 21.974 13.141 22 13.016 22C12.7347 22 12.5003 21.901 12.3128 21.7031L8.31283 17.7031C8.11491 17.5052 8.01595 17.2708 8.01595 17V9.40625L0.312826 1.70312C-0.0100911 1.40104 -0.0830078 1.03646 0.0940755 0.609375C0.271159 0.203125 0.578451 0 1.01595 0H21.016C21.4535 0 21.7607 0.203125 21.9378 0.609375Z" fill="#24EE89"/>
</svg>
